<svg width="22" height="22" viewBox="0 0 22 22" fill="none" xmlns="http://www.w3.org/2000/svg">
<rect width="21.2632" height="21.2632" rx="10.6316" fill="#F3F8FE"/>
<path d="M13.6085 6.21435C13.3212 6.11795 13.019 6.07527 12.7164 6.07527C12.0497 6.07047 11.4027 6.29109 10.8699 6.69829C10.8267 6.66519 10.774 6.63594 10.726 6.60764C10.678 6.57838 10.5917 6.50692 10.5198 6.46855L10.3375 6.38702C10.2416 6.33426 10.1413 6.29589 10.0353 6.26184C10.0258 6.25272 10.0114 6.24265 9.99218 6.23354H9.96388C9.68043 6.13714 9.38786 6.08438 9.0857 6.07527H9.03295C8.89865 6.07527 8.76484 6.08438 8.63007 6.10404H8.57251C8.42863 6.12275 8.28522 6.15632 8.14614 6.20428C6.35669 6.78989 5.7188 8.73234 6.26077 10.4302C6.56772 11.2978 7.0622 12.0849 7.70489 12.7319C8.63966 13.6335 9.66172 14.4297 10.7596 15.1108L10.8843 15.188L11.0042 15.1155C12.0982 14.4297 13.1145 13.6335 14.0406 12.7367C14.6876 12.0897 15.1816 11.2978 15.4838 10.4302C16.0166 8.73234 15.3787 6.78989 13.6085 6.21435Z" fill="#C4C4C4"/>
</svg>
